<?xml version="1.0" standalone="no"?>
<!DOCTYPE svg PUBLIC "-//W3C//DTD SVG 20010904//EN"
 "http://www.w3.org/TR/2001/REC-SVG-20010904/DTD/svg10.dtd">
<svg version="1.0" xmlns="http://www.w3.org/2000/svg"
 width="296.000000pt" height="296.000000pt" viewBox="0 0 296.000000 296.000000"
 preserveAspectRatio="xMidYMid meet">
<metadata>
Created by potrace 1.11, written by Peter Selinger 2001-2013
</metadata>
<g transform="translate(0.000000,296.000000) scale(0.100000,-0.100000)"
fill="#000000" stroke="none">
<path d="M1195 2704 c-38 -10 -61 -25 -98 -64 -27 -27 -55 -50 -62 -50 -7 0
-28 -17 -47 -38 -18 -21 -48 -49 -66 -63 -18 -13 -47 -47 -63 -76 -17 -29 -37
-53 -44 -53 -8 0 -29 -20 -48 -44 -27 -36 -40 -72 -71 -197 -35 -142 -38 -158
-26 -201 9 -37 9 -54 -1 -81 -11 -30 -9 -39 15 -86 27 -55 33 -95 16 -106 -14
-9 -12 -69 4 -112 8 -21 17 -68 20 -105 4 -36 13 -82 21 -102 15 -35 15 -36
-15 -58 -40 -29 -38 -53 8 -82 41 -27 119 -53 128 -43 4 3 -1 68 -9 144 -32
270 -40 415 -28 473 6 30 13 95 16 144 3 50 9 92 13 95 4 4 18 21 31 39 24 34
90 82 113 82 7 0 27 8 43 17 34 19 118 26 325 27 142 1 146 0 205 -29 68 -34
131 -107 141 -165 4 -19 12 -46 20 -60 34 -67 38 -124 10 -162 -10 -14 -34
-19 -107 -23 -52 -3 -107 -8 -123 -11 -37 -8 -93 -47 -89 -61 2 -6 -16 -30
-41 -54 -44 -39 -46 -44 -46 -96 0 -67 22 -123 48 -123 15 0 23 13 36 58 14
52 18 58 43 57 17 0 31 7 38 20 24 47 26 48 51 24 16 -15 36 -22 62 -22 26 0
39 -4 39 -13 0 -8 -7 -14 -14 -14 -8 0 -11 -4 -8 -10 11 -18 59 -11 100 15 48
29 67 31 89 7 14 -16 15 -28 6 -89 -11 -81 -41 -157 -64 -166 -9 -4 -16 -13
-16 -21 0 -17 -43 -32 -75 -27 -11 2 -54 27 -96 57 -79 55 -109 66 -109 39 0
-29 -22 -44 -49 -31 -20 9 -26 8 -35 -9 -6 -10 -29 -38 -50 -62 -37 -42 -42
-44 -80 -38 -38 6 -40 5 -22 -10 11 -8 28 -15 39 -15 10 0 25 -7 33 -15 9 -9
34 -15 62 -15 105 0 77 -30 -48 -50 -36 -6 -85 -15 -108 -22 -55 -14 -60 -7
-51 69 4 32 8 73 8 91 1 29 -1 31 -17 23 -10 -5 -24 -29 -32 -53 -19 -62 -34
-98 -41 -98 -15 0 -17 -46 -3 -68 14 -21 21 -23 62 -17 47 6 122 -15 122 -34
0 -5 10 -9 23 -9 12 0 45 -4 72 -9 l50 -10 -38 -7 c-20 -5 -46 -6 -57 -3 -28
7 -25 3 18 -25 48 -32 87 -39 141 -27 24 5 59 10 77 11 19 1 34 4 34 8 0 4 11
12 25 18 14 7 29 22 34 35 25 65 55 117 68 117 8 0 19 14 24 30 21 60 71 32
98 -55 16 -51 17 -61 5 -68 -8 -5 -12 -12 -9 -17 7 -11 -34 -76 -67 -107 -12
-12 -50 -50 -83 -83 -55 -56 -106 -87 -207 -128 -16 -7 -28 -15 -28 -20 0 -10
89 -32 131 -32 60 0 68 -12 65 -93 -2 -39 0 -76 4 -82 5 -5 10 -21 12 -35 2
-19 12 -27 47 -37 32 -9 47 -10 52 -2 3 6 15 9 25 8 11 -2 30 3 44 10 14 8 54
30 90 49 36 19 82 46 103 60 35 23 38 24 56 8 10 -9 31 -40 46 -69 16 -28 39
-63 52 -77 34 -34 63 -102 56 -130 -5 -18 -3 -21 8 -15 8 5 11 5 7 0 -4 -4 -3
-16 3 -26 12 -24 -7 -26 -37 -4 -19 13 -23 12 -43 -6 -21 -20 -29 -35 -12 -24
5 3 16 -4 24 -16 10 -13 17 -17 22 -10 9 16 25 3 25 -21 0 -13 -5 -18 -14 -15
-8 3 -17 -1 -20 -8 -3 -9 -12 -12 -23 -8 -14 4 -15 3 -7 -6 7 -8 42 -11 108
-9 l96 3 -25 27 c-14 15 -25 33 -25 41 0 7 -5 18 -12 25 -6 6 -13 17 -14 24
-2 7 -12 45 -22 83 -11 39 -30 120 -43 180 -12 61 -31 127 -41 148 -10 20 -15
37 -11 37 5 0 3 4 -2 8 -6 4 -21 32 -35 62 -13 30 -34 66 -47 81 -13 14 -23
28 -23 31 0 12 96 67 139 79 45 13 155 104 166 137 3 9 20 24 38 32 26 12 33
22 39 58 4 23 14 49 22 58 28 27 66 201 61 274 -1 11 3 20 9 20 6 0 5 4 -2 9
-8 4 -13 11 -13 15 3 23 0 36 -9 31 -5 -3 -10 2 -10 13 0 11 -9 31 -21 46 -21
27 -22 30 -4 148 6 39 4 51 -14 76 -11 17 -21 35 -21 41 0 6 -7 8 -16 4 -12
-4 -15 0 -12 18 2 14 -4 30 -16 40 -16 13 -17 21 -9 61 9 40 7 52 -15 98 -13
28 -34 56 -46 61 -12 6 -26 18 -31 28 -30 56 -78 131 -89 140 -8 6 -37 17 -65
24 l-51 12 0 43 c0 35 -4 45 -19 49 -12 3 -22 17 -25 34 -3 16 -9 43 -12 59
-9 47 -49 87 -107 106 -29 9 -70 29 -92 44 -71 47 -125 62 -245 66 -90 3 -152
15 -174 33 -18 15 -156 11 -221 -5z m483 -1028 c22 -21 -15 -37 -104 -43 -62
-5 -74 -3 -74 9 0 9 23 26 52 40 56 27 96 25 126 -6z m-151 -680 c-4 -9 -11
-16 -17 -16 -11 0 -14 33 -3 44 11 10 26 -11 20 -28z m-43 8 c10 -25 7 -30
-16 -41 -31 -14 -48 -6 -48 22 0 34 52 50 64 19z m-89 -14 c17 -19 17 -22 2
-37 -14 -14 -23 -15 -76 -3 -47 10 -61 17 -61 31 0 14 10 19 43 22 23 2 49 4
58 5 9 1 24 -7 34 -18z"/>
<path d="M990 1610 c12 -8 12 -10 1 -10 -8 0 -12 -2 -9 -5 3 -3 13 -2 22 1 14
5 15 9 4 15 -7 5 -17 9 -23 9 -5 0 -3 -5 5 -10z"/>
<path d="M975 1529 c-34 -10 -75 -44 -75 -62 0 -24 20 -42 45 -42 14 -1 25 5
25 12 0 17 15 16 30 -2 25 -30 90 -5 90 34 0 9 8 11 26 7 34 -9 70 20 53 41
-6 7 -17 13 -23 13 -6 0 -2 -7 8 -15 11 -8 16 -15 12 -15 -4 0 -19 9 -33 20
-28 22 -101 26 -158 9z"/>
<path d="M2952 1318 c-2 -20 -13 -23 -28 -8 -7 7 -18 3 -34 -12 -14 -13 -34
-23 -45 -23 -15 0 -19 -6 -18 -23 2 -13 -4 -25 -12 -28 -8 -4 -15 -11 -15 -16
0 -6 -8 -17 -17 -24 -10 -7 -19 -17 -19 -23 -1 -6 -3 -14 -4 -18 -1 -5 -3 -15
-4 -23 0 -8 -8 -15 -16 -15 -8 0 -14 6 -12 13 1 8 -2 11 -7 7 -6 -3 -8 -12 -4
-20 4 -11 1 -13 -11 -9 -9 3 -16 1 -16 -5 0 -6 9 -11 21 -11 15 0 19 -4 15
-16 -3 -9 -6 -18 -6 -20 0 -2 -10 -4 -21 -4 -19 0 -20 -2 -8 -17 12 -15 12
-16 -3 -10 -10 3 -20 2 -23 -3 -4 -6 -1 -10 6 -10 10 0 10 -3 1 -12 -17 -17
-15 -48 4 -55 12 -4 13 -7 3 -14 -10 -6 -9 -10 6 -15 11 -4 23 -12 27 -18 4
-6 8 2 8 17 0 19 4 26 12 21 7 -5 9 0 6 14 -5 16 -1 22 16 24 14 2 23 13 27
33 l7 30 2 -30 c1 -18 4 -23 7 -12 2 9 9 17 14 17 5 0 8 6 7 13 -2 7 5 11 17
10 64 -8 89 -14 101 -24 8 -7 17 -10 19 -7 3 3 4 81 2 174 -1 93 -4 161 -5
152z"/>
<path d="M1080 746 c0 -9 5 -16 10 -16 6 0 10 4 10 9 0 6 -4 13 -10 16 -5 3
-10 -1 -10 -9z"/>
<path d="M2171 620 c11 -22 19 -45 19 -52 0 -7 7 -26 15 -42 9 -16 13 -31 11
-34 -3 -2 4 -20 14 -40 11 -19 17 -39 15 -43 -3 -4 2 -9 10 -13 8 -3 15 -12
15 -20 0 -8 13 -39 29 -69 15 -30 38 -85 51 -123 12 -38 34 -95 47 -127 26
-57 26 -57 69 -57 l43 0 -4 48 c-4 63 -21 125 -46 168 -23 42 -24 54 -3 54 22
0 80 -64 94 -104 6 -17 26 -60 45 -96 l34 -65 165 -3 166 -2 0 184 c0 180 -1
184 -22 198 -57 36 -209 50 -271 25 -40 -17 -82 -12 -118 14 -15 10 -35 19
-46 19 -10 0 -34 16 -53 36 -32 33 -132 104 -146 104 -3 0 -18 9 -34 20 -15
11 -48 28 -72 39 l-45 19 18 -38z"/>
<path d="M1190 531 c0 -5 7 -15 17 -22 15 -13 15 -12 4 9 -12 23 -21 28 -21
13z"/>
<path d="M165 401 c-27 -11 -73 -59 -91 -93 -21 -41 -1 -34 44 14 37 39 42 42
103 44 35 2 54 0 42 -2 -34 -8 -28 -24 9 -24 l31 0 -36 -35 c-54 -52 -45 -62
13 -16 27 21 55 41 62 44 20 7 -2 37 -42 59 -36 19 -100 23 -135 9z"/>
<path d="M370 340 c0 -5 -35 -35 -77 -66 -116 -85 -132 -102 -169 -183 -19
-40 -34 -77 -34 -82 0 -5 38 -9 84 -9 l83 0 7 38 c4 30 14 44 43 63 20 13 49
44 63 68 40 70 51 66 64 -22 4 -21 11 -48 17 -59 6 -11 9 -36 7 -54 -4 -31 -2
-34 24 -34 21 0 29 6 34 25 3 14 3 32 0 40 -6 17 11 53 33 71 12 10 10 16 -12
38 -15 15 -27 35 -27 46 0 10 -4 22 -10 25 -5 3 -10 14 -10 23 0 12 -17 24
-50 37 -27 11 -50 25 -50 32 0 7 -4 13 -10 13 -5 0 -10 -4 -10 -10z"/>
<path d="M1860 300 c0 -5 4 -10 8 -10 4 0 8 -10 10 -23 3 -45 -100 -81 -146
-51 -12 8 -32 12 -42 9 -14 -4 -20 -2 -20 9 0 9 -5 16 -12 16 -6 0 -20 7 -30
16 -14 14 -20 14 -33 4 -8 -7 -15 -18 -15 -26 0 -7 -23 -17 -57 -24 -112 -21
-106 -18 -98 -48 13 -50 15 -97 3 -119 -8 -17 -8 -26 2 -38 11 -13 59 -15 350
-15 275 0 340 3 349 14 9 10 8 15 -4 20 -8 3 -15 13 -15 22 0 11 -5 14 -16 10
-12 -4 -14 -1 -9 14 4 11 2 20 -4 20 -6 0 -11 -6 -11 -12 0 -9 -4 -8 -10 2
-14 22 -12 30 5 24 8 -4 15 -2 15 3 0 4 9 14 21 21 16 10 24 10 35 1 11 -9 14
-9 14 0 0 21 -20 51 -34 51 -8 0 -19 6 -25 14 -9 11 -20 12 -42 6 -17 -5 -36
-7 -43 -4 -7 3 -33 6 -57 7 -38 2 -44 5 -45 25 -2 40 -44 99 -44 62z m-240
-60 c0 -5 -5 -10 -11 -10 -5 0 -7 5 -4 10 3 6 8 10 11 10 2 0 4 -4 4 -10z
m450 -50 c0 -5 -5 -10 -11 -10 -5 0 -7 5 -4 10 3 6 8 10 11 10 2 0 4 -4 4 -10z
m7 -42 c-3 -8 -6 -5 -6 6 -1 11 2 17 5 13 3 -3 4 -12 1 -19z m33 -119 c0 -5
-7 -9 -15 -9 -8 0 -15 7 -15 15 0 9 6 12 15 9 8 -4 15 -10 15 -15z"/>
<path d="M1910 278 c0 -19 26 -42 34 -30 3 5 -3 17 -14 27 -17 15 -20 16 -20
3z"/>
<path d="M1770 260 c-9 -6 -10 -10 -3 -10 6 0 15 5 18 10 8 12 4 12 -15 0z"/>
<path d="M155 234 c-11 -18 -12 -24 -3 -24 16 0 77 40 63 41 -5 0 -18 2 -27 4
-9 2 -24 -8 -33 -21z"/>
<path d="M1370 39 c0 -5 5 -7 10 -4 6 3 10 8 10 11 0 2 -4 4 -10 4 -5 0 -10
-5 -10 -11z"/>
<path d="M540 10 c0 -5 5 -10 10 -10 6 0 10 5 10 10 0 6 -4 10 -10 10 -5 0
-10 -4 -10 -10z"/>
<path d="M590 9 c0 -5 5 -7 10 -4 6 3 10 8 10 11 0 2 -4 4 -10 4 -5 0 -10 -5
-10 -11z"/>
<path d="M1370 10 c0 -5 5 -10 11 -10 5 0 7 5 4 10 -3 6 -8 10 -11 10 -2 0 -4
-4 -4 -10z"/>
<path d="M1338 3 c7 -3 16 -2 19 1 4 3 -2 6 -13 5 -11 0 -14 -3 -6 -6z"/>
</g>
</svg>
